<svg xmlns="http://www.w3.org/2000/svg" width="240" height="240" viewBox="8 -14 224 224" role="img" aria-label="Detective Tobs, happy"><clipPath id="ch36"><rect x="8" y="-14" width="224" height="224" rx="51.52"/></clipPath><g clip-path="url(#ch36)"><rect x="8" y="-14" width="224" height="224" fill="#f1ece2"/><path d="M96 286c-42 10-70-8-74-40" fill="none" stroke="#57b862" stroke-width="28" stroke-linecap="round" stroke-linejoin="round"/><path d="M13 250l9-17 9 17z" transform="rotate(-70 22 250)" fill="#f08a3c"/><path d="M27 276l9-17 9 17z" transform="rotate(-40 36 276)" fill="#f08a3c"/><path d="M53 290l9-17 9 17z" transform="rotate(-15 62 290)" fill="#f08a3c"/><ellipse cx="96" cy="309" rx="24" ry="11" fill="#34884a"/><path d="M79 314l4 7 4-7z" fill="#ffffff"/><path d="M92 314l4 7 4-7z" fill="#ffffff"/><path d="M105 314l4 7 4-7z" fill="#ffffff"/><ellipse cx="144" cy="309" rx="24" ry="11" fill="#34884a"/><path d="M127 314l4 7 4-7z" fill="#ffffff"/><path d="M140 314l4 7 4-7z" fill="#ffffff"/><path d="M153 314l4 7 4-7z" fill="#ffffff"/><path d="M78 202c0-10 8-16 18-16h48c10 0 18 6 18 16L174 290c1 6-3 10-9 10H75c-6 0-10-4-9-10z" fill="#c9a36b"/><path d="M120 220V300" stroke="#a17c47" stroke-width="2.2" stroke-linecap="round"/><rect x="69" y="249.84" width="102" height="12" rx="3" fill="#a17c47"/><rect x="112" y="247.34" width="16" height="17" rx="3.5" fill="#c9a36b" stroke="#e0a526" stroke-width="3.6"/><path d="M106 188l14 26 14-26z" fill="#ffffff"/><path d="M117 195h6l2.5 11-5.5 7-5.5-7z" fill="#141416"/><path d="M106 187l-22 8 14 26 22-8z" fill="#a17c47"/><path d="M134 187l22 8-14 26-22-8z" fill="#a17c47"/><path d="M84 216q-14 4-20 16" fill="none" stroke="#c9a36b" stroke-width="13" stroke-linecap="round" stroke-linejoin="round"/><path d="M60 228l-7 5m9 3l-5 7" fill="none" stroke="#34884a" stroke-width="3.4" stroke-linecap="round" stroke-linejoin="round"/><path d="M156 214q10 0 16 6" fill="none" stroke="#c9a36b" stroke-width="13" stroke-linecap="round" stroke-linejoin="round"/><ellipse cx="120" cy="100" rx="76" ry="56" fill="#57b862"/><rect x="58" y="104" width="124" height="84" rx="38" fill="#57b862"/><circle cx="72" cy="134" r="4" fill="#34884a"/><circle cx="62" cy="120" r="3" fill="#34884a"/><circle cx="168" cy="134" r="4" fill="#34884a"/><circle cx="178" cy="120" r="3" fill="#34884a"/><circle cx="88" cy="96" r="27" fill="#34884a"/><path d="M72 100q16-16 32 0" fill="none" stroke="#ffffff" stroke-width="6.5" stroke-linecap="round" stroke-linejoin="round"/><circle cx="152" cy="96" r="27" fill="#34884a"/><path d="M136 100q16-16 32 0" fill="none" stroke="#ffffff" stroke-width="6.5" stroke-linecap="round" stroke-linejoin="round"/><ellipse cx="106" cy="134" rx="4" ry="5.5" fill="#34884a"/><ellipse cx="134" cy="134" rx="4" ry="5.5" fill="#34884a"/><path d="M72 150q48 46 96 0z" fill="#7a2f35"/><path d="M100 172q20 14 40 0q-20-10-40 0z" fill="#f5a3a8"/><path d="M78 152l6 10 6-10z" fill="#ffffff"/><path d="M92 155l6 10 6-10z" fill="#ffffff"/><path d="M106 157l6 10 6-10z" fill="#ffffff"/><path d="M120 157l6 10 6-10z" fill="#ffffff"/><path d="M134 155l6 10 6-10z" fill="#ffffff"/><path d="M148 152l6 10 6-10z" fill="#ffffff"/><path d="M72 150h96" fill="none" stroke="#34884a" stroke-width="4" stroke-linecap="round" stroke-linejoin="round"/><path d="M169.4 119.2C195 165 156 181 138 200" fill="none" stroke="#e0a526" stroke-width="2.4" stroke-linecap="round" stroke-dasharray="1 5"/><circle cx="152" cy="96" r="29" fill="#ffffff" fill-opacity=".16" stroke="#e0a526" stroke-width="5"/><g transform="translate(0 -22) rotate(-6 120 64)"><path d="M76 62c-2-26 8-44 22-47 8-2 14 4 22 4s14-6 22-4c14 3 24 21 22 47z" fill="#c9a36b"/><path d="M76.4 49h87.2c.7 4.3.7 8.7.4 13H76c-.3-4.300-.3-8.700.4-13z" fill="#d4f04c"/><ellipse cx="120" cy="64" rx="68" ry="12" fill="#a17c47"/></g><path d="M186 204l-20 22" stroke="#141416" stroke-width="12" stroke-linecap="round"/><circle cx="200" cy="186" r="24" fill="#ffffff" fill-opacity=".25" stroke="#141416" stroke-width="8"/><path d="M186 178a16 16 0 0 1 10-8" fill="none" stroke="#ffffff" stroke-width="3.4" stroke-linecap="round"/><circle cx="172" cy="218" r="12" fill="#57b862"/></g></svg>