<svg xmlns="http://www.w3.org/2000/svg" width="240" height="240" viewBox="8 -14 224 224" role="img" aria-label="Detective Puff, happy, waving"><clipPath id="ch55"><rect x="8" y="-14" width="224" height="224" rx="51.52"/></clipPath><g clip-path="url(#ch55)"><rect x="8" y="-14" width="224" height="224" fill="#f1ece2"/><circle cx="58" cy="300" r="13" fill="#f2a94e"/><circle cx="47" cy="293" r="10" fill="#f2a94e"/><circle cx="45" cy="291" r="4.5" fill="#fff1d6"/><ellipse cx="102" cy="310" rx="16" ry="9" fill="#fff1d6"/><ellipse cx="138" cy="310" rx="16" ry="9" fill="#fff1d6"/><path d="M98 218L58 220L46 184" fill="none" stroke="#a17c47" stroke-width="18" stroke-linecap="round" stroke-linejoin="round"/><path d="M98 218L58 220L46 184" fill="none" stroke="#c9a36b" stroke-width="15" stroke-linecap="round" stroke-linejoin="round"/><circle cx="44" cy="170" r="13" fill="#f2a94e"/><circle cx="38.54" cy="167.4" r="2.86" fill="#fff1d6"/><circle cx="44" cy="164.02" r="2.86" fill="#fff1d6"/><circle cx="49.46" cy="167.4" r="2.86" fill="#fff1d6"/><ellipse cx="44" cy="173.64" rx="5.2" ry="3.9" fill="#fff1d6"/><path d="M24 154q-7 9-3 20M38 146q-9 2-13 9" fill="none" stroke="#141416" stroke-opacity=".55" stroke-width="3.4" stroke-linecap="round"/><path d="M142 218L180 238L175 223" fill="none" stroke="#a17c47" stroke-width="18" stroke-linecap="round" stroke-linejoin="round"/><path d="M142 218L180 238L175 223" fill="none" stroke="#c9a36b" stroke-width="15" stroke-linecap="round" stroke-linejoin="round"/><path d="M80 206c0-10 8-16 18-16h44c10 0 18 6 18 16L170 290c1 6-3 10-9 10H79c-6 0-10-4-9-10z" fill="#c9a36b"/><path d="M120 224V300" stroke="#a17c47" stroke-width="2.2" stroke-linecap="round"/><rect x="73" y="251.60000000000002" width="94" height="12" rx="3" fill="#a17c47"/><rect x="112" y="249.10000000000002" width="16" height="17" rx="3.5" fill="#c9a36b" stroke="#e0a526" stroke-width="3.6"/><path d="M106 192l14 26 14-26z" fill="#ffffff"/><path d="M117 199h6l2.5 11-5.5 7-5.5-7z" fill="#141416"/><path d="M106 191l-22 8 14 26 22-8z" fill="#a17c47"/><path d="M134 191l22 8-14 26-22-8z" fill="#a17c47"/><path d="M70 80L64 34 104 58z" fill="#f2a94e"/><path d="M75 70L72 48 92 60z" fill="#d6862b"/><path d="M170 80L176 34 136 58z" fill="#f2a94e"/><path d="M165 70L168 48 148 60z" fill="#d6862b"/><circle cx="192" cy="124" r="23" fill="#f2a94e"/><circle cx="187" cy="147" r="23" fill="#f2a94e"/><circle cx="171" cy="166" r="23" fill="#f2a94e"/><circle cx="148" cy="179" r="23" fill="#f2a94e"/><circle cx="120" cy="184" r="23" fill="#f2a94e"/><circle cx="92" cy="179" r="23" fill="#f2a94e"/><circle cx="69" cy="166" r="23" fill="#f2a94e"/><circle cx="53" cy="147" r="23" fill="#f2a94e"/><circle cx="48" cy="124" r="23" fill="#f2a94e"/><circle cx="53" cy="101" r="23" fill="#f2a94e"/><circle cx="69" cy="82" r="23" fill="#f2a94e"/><circle cx="92" cy="69" r="23" fill="#f2a94e"/><circle cx="120" cy="64" r="23" fill="#f2a94e"/><circle cx="148" cy="69" r="23" fill="#f2a94e"/><circle cx="171" cy="82" r="23" fill="#f2a94e"/><circle cx="187" cy="101" r="23" fill="#f2a94e"/><ellipse cx="120" cy="122" rx="70" ry="60" fill="#f2a94e"/><ellipse cx="120" cy="150" rx="46" ry="34" fill="#fff1d6"/><circle cx="96" cy="92" r="6.5" fill="#fff1d6"/><circle cx="144" cy="92" r="6.5" fill="#fff1d6"/><circle cx="78" cy="146" r="11" fill="#f5a3a8" fill-opacity=".55"/><circle cx="162" cy="146" r="11" fill="#f5a3a8" fill-opacity=".55"/><path d="M79 120q15-15 30 0" fill="none" stroke="#141416" stroke-width="6.5" stroke-linecap="round" stroke-linejoin="round"/><path d="M131 120q15-15 30 0" fill="none" stroke="#141416" stroke-width="6.5" stroke-linecap="round" stroke-linejoin="round"/><path d="M111 136q9-4 18 0l-9 9z" fill="#141416"/><path d="M102 149q18 26 36 0z" fill="#7a2f35"/><path d="M110 158q10 12 20 0q-10-6-20 0z" fill="#f5a3a8"/><path d="M100 148q10 8 20-2 10 10 20 2" fill="none" stroke="#141416" stroke-width="3" stroke-linecap="round" stroke-linejoin="round"/><g transform="translate(4 -4) rotate(9 120 64)"><path d="M76 62c-2-26 8-44 22-47 8-2 14 4 22 4s14-6 22-4c14 3 24 21 22 47z" fill="#c9a36b"/><path d="M76.4 49h87.2c.7 4.3.7 8.7.4 13H76c-.3-4.300-.3-8.700.4-13z" fill="#d4f04c"/><ellipse cx="120" cy="64" rx="68" ry="12" fill="#a17c47"/></g><path d="M186 204l-20 22" stroke="#141416" stroke-width="12" stroke-linecap="round"/><circle cx="200" cy="186" r="24" fill="#ffffff" fill-opacity=".25" stroke="#141416" stroke-width="8"/><path d="M186 178a16 16 0 0 1 10-8" fill="none" stroke="#ffffff" stroke-width="3.4" stroke-linecap="round"/><circle cx="172" cy="218" r="12" fill="#f2a94e"/></g></svg>