<svg xmlns="http://www.w3.org/2000/svg" width="512" height="512" viewBox="50 44 140 140" role="img" aria-label="Dog, calm"><clipPath id="ch32"><rect x="50" y="44" width="140" height="140" rx="32.2"/></clipPath><g clip-path="url(#ch32)"><rect x="50" y="44" width="140" height="140" fill="#f2a94e"/><circle cx="58" cy="300" r="13" fill="#f2a94e"/><circle cx="47" cy="293" r="10" fill="#f2a94e"/><circle cx="45" cy="291" r="4.5" fill="#fff1d6"/><ellipse cx="102" cy="310" rx="16" ry="9" fill="#fff1d6"/><ellipse cx="138" cy="310" rx="16" ry="9" fill="#fff1d6"/><path d="M96 218C72 224 60 242 58 260" fill="none" stroke="#d6862b" stroke-width="18" stroke-linecap="round" stroke-linejoin="round"/><path d="M96 218C72 224 60 242 58 260" fill="none" stroke="#f2a94e" stroke-width="15" stroke-linecap="round" stroke-linejoin="round"/><ellipse cx="57" cy="271" rx="9.5" ry="11" fill="#f2a94e"/><path d="M53.8 276v5m6.400-5v5" stroke="#d6862b" stroke-width="2" stroke-linecap="round"/><path d="M144 218C168 224 180 242 182 260" fill="none" stroke="#d6862b" stroke-width="18" stroke-linecap="round" stroke-linejoin="round"/><path d="M144 218C168 224 180 242 182 260" fill="none" stroke="#f2a94e" stroke-width="15" stroke-linecap="round" stroke-linejoin="round"/><ellipse cx="183" cy="271" rx="9.5" ry="11" fill="#f2a94e"/><path d="M179.8 276v5m6.400-5v5" stroke="#d6862b" stroke-width="2" stroke-linecap="round"/><path d="M82 204c-8 34-6 68 6 98h64c12-30 14-64 6-98z" fill="#f2a94e"/><circle cx="102" cy="216" r="15" fill="#fff1d6"/><circle cx="120" cy="222" r="17" fill="#fff1d6"/><circle cx="138" cy="216" r="15" fill="#fff1d6"/><circle cx="110" cy="240" r="15" fill="#fff1d6"/><circle cx="130" cy="240" r="15" fill="#fff1d6"/><circle cx="120" cy="258" r="14" fill="#fff1d6"/><path d="M70 80L64 34 104 58z" fill="#f2a94e"/><path d="M75 70L72 48 92 60z" fill="#d6862b"/><path d="M170 80L176 34 136 58z" fill="#f2a94e"/><path d="M165 70L168 48 148 60z" fill="#d6862b"/><circle cx="192" cy="124" r="23" fill="#f2a94e"/><circle cx="187" cy="147" r="23" fill="#f2a94e"/><circle cx="171" cy="166" r="23" fill="#f2a94e"/><circle cx="148" cy="179" r="23" fill="#f2a94e"/><circle cx="120" cy="184" r="23" fill="#f2a94e"/><circle cx="92" cy="179" r="23" fill="#f2a94e"/><circle cx="69" cy="166" r="23" fill="#f2a94e"/><circle cx="53" cy="147" r="23" fill="#f2a94e"/><circle cx="48" cy="124" r="23" fill="#f2a94e"/><circle cx="53" cy="101" r="23" fill="#f2a94e"/><circle cx="69" cy="82" r="23" fill="#f2a94e"/><circle cx="92" cy="69" r="23" fill="#f2a94e"/><circle cx="120" cy="64" r="23" fill="#f2a94e"/><circle cx="148" cy="69" r="23" fill="#f2a94e"/><circle cx="171" cy="82" r="23" fill="#f2a94e"/><circle cx="187" cy="101" r="23" fill="#f2a94e"/><ellipse cx="120" cy="122" rx="70" ry="60" fill="#f2a94e"/><ellipse cx="120" cy="150" rx="46" ry="34" fill="#fff1d6"/><circle cx="96" cy="92" r="6.5" fill="#fff1d6"/><circle cx="144" cy="92" r="6.5" fill="#fff1d6"/><circle cx="78" cy="146" r="11" fill="#f5a3a8" fill-opacity=".55"/><circle cx="162" cy="146" r="11" fill="#f5a3a8" fill-opacity=".55"/><circle cx="94" cy="118" r="15.5" fill="#141416"/><circle cx="89" cy="112" r="6.2" fill="#ffffff"/><circle cx="99" cy="124" r="2.79" fill="#ffffff"/><circle cx="146" cy="118" r="15.5" fill="#141416"/><circle cx="141" cy="112" r="6.2" fill="#ffffff"/><circle cx="151" cy="124" r="2.79" fill="#ffffff"/><path d="M111 136q9-4 18 0l-9 9z" fill="#141416"/><path d="M106 150q14 18 28 0z" fill="#7a2f35"/><path d="M113 157q7 8 14 0q-7-4-14 0z" fill="#f5a3a8"/><path d="M100 148q10 8 20-2 10 10 20 2" fill="none" stroke="#141416" stroke-width="3" stroke-linecap="round" stroke-linejoin="round"/><g transform="translate(4 -4) rotate(9 120 64)"><path d="M76 62c-2-26 8-44 22-47 8-2 14 4 22 4s14-6 22-4c14 3 24 21 22 47z" fill="#c9a36b"/><path d="M76.4 49h87.2c.7 4.3.7 8.7.4 13H76c-.3-4.300-.3-8.700.4-13z" fill="#d4f04c"/><ellipse cx="120" cy="64" rx="68" ry="12" fill="#a17c47"/></g></g></svg>