<svg xmlns="http://www.w3.org/2000/svg" width="340" height="200" viewBox="0 0 340 200"><path d="M10 34a12 12 0 0 1 12-12h92l16 18h188a12 12 0 0 1 12 12v126a12 12 0 0 1-12 12H22a12 12 0 0 1-12-12z" fill="#c9a36b"/><path d="M10 58h320v120a12 12 0 0 1-12 12H22a12 12 0 0 1-12-12z" fill="#151517"/><path d="M10 190h320" stroke="#a17c47" stroke-width="6" stroke-linecap="round"/><text x="24" y="88" font-family="Manrope, system-ui, sans-serif" font-size="12" font-weight="700" fill="#a1a1a8" text-anchor="start" fill-opacity="1">Case 3 · Football</text><text x="24" y="116" textLength="204" lengthAdjust="spacingAndGlyphs" font-family="Bungee, system-ui, sans-serif" font-size="19" font-weight="400" fill="#ededee" text-anchor="start" fill-opacity="1">The missing trophy</text><circle cx="32" cy="150" r="7" fill="#d4f04c" stroke="#d4f04c" stroke-width="2.500"/><circle cx="54" cy="150" r="7" fill="#d4f04c" stroke="#d4f04c" stroke-width="2.500"/><circle cx="76" cy="150" r="7" fill="none" stroke="#5a5a63" stroke-width="2.500"/><circle cx="98" cy="150" r="7" fill="none" stroke="#5a5a63" stroke-width="2.500"/><circle cx="120" cy="150" r="7" fill="none" stroke="#5a5a63" stroke-width="2.500"/><text x="24" y="178" font-family="Manrope, system-ui, sans-serif" font-size="13" font-weight="700" fill="#a1a1a8" text-anchor="start" fill-opacity="1">2 of 5 clues</text><svg x="232" y="66" xmlns="http://www.w3.org/2000/svg" width="96" height="96" viewBox="8 -14 224 224" role="img" aria-label="Cat, calm"><clipPath id="ch48"><rect x="8" y="-14" width="224" height="224" rx="51.52"/></clipPath><g clip-path="url(#ch48)"><path d="M150 300c52 8 80-10 76-38-3-18-22-18-22-4" fill="none" stroke="#454552" stroke-width="14" stroke-linecap="round" stroke-linejoin="round"/><ellipse cx="102" cy="310" rx="17" ry="9" fill="#454552"/><ellipse cx="96" cy="312" rx="8" ry="5.5" fill="#f1ece2"/><ellipse cx="138" cy="310" rx="17" ry="9" fill="#454552"/><ellipse cx="144" cy="312" rx="8" ry="5.5" fill="#f1ece2"/><path d="M96 214C72 220 60 238 58 256" fill="none" stroke="#a17c47" stroke-width="18" stroke-linecap="round" stroke-linejoin="round"/><path d="M96 214C72 220 60 238 58 256" fill="none" stroke="#c9a36b" stroke-width="15" stroke-linecap="round" stroke-linejoin="round"/><ellipse cx="57" cy="267" rx="9.5" ry="11" fill="#454552"/><path d="M53.8 272v5m6.400-5v5" stroke="#2e2e38" stroke-width="2" stroke-linecap="round"/><path d="M144 214C168 220 180 238 182 256" fill="none" stroke="#a17c47" stroke-width="18" stroke-linecap="round" stroke-linejoin="round"/><path d="M144 214C168 220 180 238 182 256" fill="none" stroke="#c9a36b" stroke-width="15" stroke-linecap="round" stroke-linejoin="round"/><ellipse cx="183" cy="267" rx="9.5" ry="11" fill="#454552"/><path d="M179.8 272v5m6.400-5v5" stroke="#2e2e38" stroke-width="2" stroke-linecap="round"/><path d="M82 200c0-10 8-16 18-16h40c10 0 18 6 18 16L170 290c1 6-3 10-9 10H79c-6 0-10-4-9-10z" fill="#c9a36b"/><path d="M120 218V300" stroke="#a17c47" stroke-width="2.2" stroke-linecap="round"/><rect x="73" y="248.96" width="94" height="12" rx="3" fill="#a17c47"/><rect x="112" y="246.46" width="16" height="17" rx="3.5" fill="#c9a36b" stroke="#e0a526" stroke-width="3.6"/><path d="M106 186l14 26 14-26z" fill="#ffffff"/><path d="M117 193h6l2.5 11-5.5 7-5.5-7z" fill="#141416"/><path d="M106 185l-22 8 14 26 22-8z" fill="#a17c47"/><path d="M134 185l22 8-14 26-22-8z" fill="#a17c47"/><path d="M50 104L40 20 104 70z" fill="#454552"/><path d="M57 88L52 42 86 70z" fill="#f5a3a8"/><path d="M190 104L200 20 136 70z" fill="#454552"/><path d="M183 88L188 42 154 70z" fill="#f5a3a8"/><path d="M38 122c0-36 34-60 82-60s82 24 82 60c0 10-3 19-9 27l15 10-24 5c-15 14-38 22-64 22s-49-8-64-22l-24-5 15-10c-6-8-9-17-9-27z" fill="#454552"/><ellipse cx="106" cy="155" rx="17" ry="13" fill="#f1ece2"/><ellipse cx="134" cy="155" rx="17" ry="13" fill="#f1ece2"/><ellipse cx="120" cy="167" rx="12" ry="8" fill="#f1ece2"/><path d="M56 120c6-32 46-32 58 0-10 24.96-48 24.96-58 0z" fill="#d4f04c"/><ellipse cx="85" cy="117" rx="6.5" ry="16" fill="#141416"/><circle cx="78" cy="108" r="4.6" fill="#ffffff"/><path d="M126 120c6-32 46-32 58 0-10 24.96-48 24.96-58 0z" fill="#d4f04c"/><ellipse cx="155" cy="117" rx="6.5" ry="16" fill="#141416"/><circle cx="148" cy="108" r="4.6" fill="#ffffff"/><path d="M122 92l66 4v18q-30-16-64-8z" fill="#454552"/><path d="M54 119c8-34 48-34 62 0" fill="none" stroke="#2e2e38" stroke-width="5" stroke-linecap="round" stroke-linejoin="round"/><path d="M124 107q32-10 62 6" fill="none" stroke="#2e2e38" stroke-width="5.5" stroke-linecap="round" stroke-linejoin="round"/><path d="M113 142q7-3 14 0l-7 8z" fill="#f5a3a8"/><path d="M120 150v6m-13 2q7 6 13-2 8 9 19-3" fill="none" stroke="#141416" stroke-width="3" stroke-linecap="round" stroke-linejoin="round"/><path d="M88 152l-40-10M88 160l-42 2M152 152l40-10M152 160l42 2" stroke="#f1ece2" stroke-width="2.4" stroke-linecap="round"/><g transform="translate(-8 -2) rotate(-11 120 64)"><path d="M76 62c-2-26 8-44 22-47 8-2 14 4 22 4s14-6 22-4c14 3 24 21 22 47z" fill="#c9a36b"/><path d="M76.4 49h87.2c.7 4.3.7 8.7.4 13H76c-.3-4.300-.3-8.700.4-13z" fill="#d4f04c"/><ellipse cx="120" cy="64" rx="68" ry="12" fill="#a17c47"/></g></g></svg></svg>