<svg xmlns="http://www.w3.org/2000/svg" width="420" height="300" viewBox="0 0 420 300"><clipPath id="gc0"><rect width="420" height="300" rx="22"/></clipPath><g clip-path="url(#gc0)"><rect width="420" height="300" fill="#ffffff"/><g opacity="0.07" transform="translate(112.45714285714286 3.3000000000000114) scale(1.8956043956043955) translate(-16 -14)"><path d="M50 104L40 20 104 70z" fill="#454552"/><path d="M57 88L52 42 86 70z" fill="#f5a3a8"/><path d="M190 104L200 20 136 70z" fill="#454552"/><path d="M183 88L188 42 154 70z" fill="#f5a3a8"/><path d="M38 122c0-36 34-60 82-60s82 24 82 60c0 10-3 19-9 27l15 10-24 5c-15 14-38 22-64 22s-49-8-64-22l-24-5 15-10c-6-8-9-17-9-27z" fill="#454552"/><ellipse cx="106" cy="155" rx="17" ry="13" fill="#f1ece2"/><ellipse cx="134" cy="155" rx="17" ry="13" fill="#f1ece2"/><ellipse cx="120" cy="167" rx="12" ry="8" fill="#f1ece2"/><path d="M56 120c6-32 46-32 58 0-10 25-48 25-58 0z" fill="#d4f04c"/><ellipse cx="85" cy="117" rx="6.5" ry="16" fill="#141416"/><circle cx="78" cy="108" r="4.6" fill="#ffffff"/><path d="M126 120c6-32 46-32 58 0-10 25-48 25-58 0z" fill="#d4f04c"/><ellipse cx="155" cy="117" rx="6.5" ry="16" fill="#141416"/><circle cx="148" cy="108" r="4.6" fill="#ffffff"/><path d="M122 92l66 4v18q-30-16-64-8z" fill="#454552"/><path d="M54 119c8-34 48-34 62 0" fill="none" stroke="#2e2e38" stroke-width="5" stroke-linecap="round" stroke-linejoin="round"/><path d="M124 107q32-10 62 6" fill="none" stroke="#2e2e38" stroke-width="5.5" stroke-linecap="round" stroke-linejoin="round"/><path d="M113 142q7-3 14 0l-7 8z" fill="#f5a3a8"/><path d="M120 150v6m-13 2q7 6 13-2 8 9 19-3" fill="none" stroke="#141416" stroke-width="3" stroke-linecap="round" stroke-linejoin="round"/><path d="M88 152l-40-10M88 160l-42 2M152 152l40-10M152 160l42 2" fill="none" stroke="#f1ece2" stroke-width="2.4" stroke-linecap="round" stroke-linejoin="round"/></g><text x="28" y="50" font-family="Bungee, system-ui, sans-serif" font-size="19" font-weight="400" fill="#111113" text-anchor="start" fill-opacity="1">Around the world</text><text x="392" y="50" font-family="Manrope, system-ui, sans-serif" font-size="17" font-weight="800" fill="#55555c" text-anchor="end" fill-opacity="1">2 / 8</text><path d="M28 68h364" stroke="#d6d6db" stroke-width="2"/><path d="M28 68h91" stroke="#111113" stroke-width="2"/><text x="28" y="112" xml:space="preserve" textLength="72.10000000000001" lengthAdjust="spacingAndGlyphs" font-family="Manrope, system-ui, sans-serif" font-size="19" font-weight="600" fill="#111113">The sou</text><rect x="99.10000000000001" y="93" width="84.4" height="26" rx="4" fill="#d4f04c"/><text x="100.10000000000001" y="112" xml:space="preserve" textLength="82.4" lengthAdjust="spacingAndGlyphs" font-family="Manrope, system-ui, sans-serif" font-size="19" font-weight="700" fill="#141416">p, a ris</text><text x="182.5" y="112" xml:space="preserve" textLength="144.20000000000002" lengthAdjust="spacingAndGlyphs" font-family="Manrope, system-ui, sans-serif" font-size="19" font-weight="600" fill="#111113">otto was cold.</text><text x="28" y="148" xml:space="preserve" textLength="92.7" lengthAdjust="spacingAndGlyphs" font-family="Manrope, system-ui, sans-serif" font-size="19" font-weight="600" fill="#111113">It came f</text><rect x="119.7" y="129" width="53.5" height="26" rx="4" fill="#d4f04c"/><text x="120.7" y="148" xml:space="preserve" textLength="51.5" lengthAdjust="spacingAndGlyphs" font-family="Manrope, system-ui, sans-serif" font-size="19" font-weight="700" fill="#141416">rom e</text><text x="172.2" y="148" xml:space="preserve" textLength="154.5" lengthAdjust="spacingAndGlyphs" font-family="Manrope, system-ui, sans-serif" font-size="19" font-weight="600" fill="#111113">very kitchen in</text><text x="28" y="184" xml:space="preserve" textLength="278.1" lengthAdjust="spacingAndGlyphs" font-family="Manrope, system-ui, sans-serif" font-size="19" font-weight="600" fill="#111113">town, and nobody asked why.</text><text x="28" y="220" xml:space="preserve" textLength="288.40000000000003" lengthAdjust="spacingAndGlyphs" font-family="Manrope, system-ui, sans-serif" font-size="19" font-weight="600" fill="#111113">It sat there in plain sight.</text><text x="28" y="268" font-family="Manrope, system-ui, sans-serif" font-size="14" font-weight="700" fill="#55555c" text-anchor="start" fill-opacity="1">6 more are hiding.</text></g></svg>