<svg xmlns="http://www.w3.org/2000/svg" width="480" height="240" viewBox="0 0 480 240"><defs><pattern id="eyes0" width="190" height="132" patternUnits="userSpaceOnUse"><g transform="translate(18 20) scale(0.5)"><g fill="#d4f04c" fill-opacity="0.5"><path d="M0 22c6-32 46-32 58 0-10 25-48 25-58 0z"/><path d="M70 22c6-32 46-32 58 0-10 25-48 25-58 0z"/></g><g fill="#141416" fill-opacity="0.85"><ellipse cx="29" cy="19" rx="6.5" ry="15"/><ellipse cx="99" cy="19" rx="6.5" ry="15"/></g><g fill="#ffffff" fill-opacity="0.5"><circle cx="22" cy="10" r="4.4"/><circle cx="92" cy="10" r="4.4"/></g></g><g transform="translate(112 84) scale(0.42)"><g fill="#d4f04c" fill-opacity="0.275"><path d="M0 22c6-32 46-32 58 0-10 25-48 25-58 0z"/><path d="M70 22c6-32 46-32 58 0-10 25-48 25-58 0z"/></g><path d="M66 -6l66 4v20q-30-18-64-10z" fill="#0d0d0e"/><g fill="#141416" fill-opacity="0.625"><ellipse cx="29" cy="19" rx="6.5" ry="15"/><ellipse cx="99" cy="23" rx="6.5" ry="11"/></g><g fill="#ffffff" fill-opacity="0.275"><circle cx="22" cy="10" r="4.4"/><circle cx="92" cy="17" r="4.4"/></g></g></pattern></defs><rect width="480" height="240" fill="#0d0d0e"/><rect width="480" height="240" fill="url(#eyes0)"/></svg>